<svg width="800" height="600" xmlns="http://www.w3.org/2000/svg">
 <style type="text/css">.st0{fill:#FFFFFF;}
	.st1{fill:#3D17C6;}
	.st2{fill:#0A202D;}
	.st3{fill:#002C8E;}
	.st4{fill:#05AF5A;}
	.st5{fill:#11D33B;}
	.st6{fill:#E36EFF;}
	.st7{fill:#9129CE;}
	.st8{fill:#DB3C0B;}
	.st9{fill:#0043A5;}
	.st10{fill:#17A4E2;}
	.st11{fill:#6735EF;}
	.st12{fill:#FFC248;}
	.st13{fill:#3161E8;}
	.st14{fill:#9552FF;}
	.st15{fill:#6621EA;}
	.st16{fill:#153DCE;}</style>

 <g>
  <title>background</title>
  <rect fill="none" id="canvas_background" height="602" width="802" y="-1" x="-1"/>
 </g>
 <g>
  <title>Layer 1</title>
  <g stroke="null" id="Object">
   <g stroke="null" id="svg_2">
    <g stroke="null" id="svg_3">
     <path stroke="null" id="svg_4" d="m622.070505,281.469272c-7.09005,-42.917074 -58.644846,-74.458538 -168.489985,-44.571708c-27.904413,91.00488 72.166585,101.087807 105.641752,95.193173c-48.769419,81.232197 -5.368181,104.190246 -28.562775,173.064394l9.875427,0c0,-0.051707 88.625631,-180.820492 81.53558,-223.685858z" class="st1"/>
    </g>
    <polygon stroke="null" id="svg_5" points="530.6594848632812,505.10345458984375 527.9754028320312,513.9970703125 560.1338500976562,513.9970703125 540.534912109375,505.10345458984375 " class="st2"/>
    <g stroke="null" id="svg_6">
     <path stroke="null" id="svg_7" d="m248.222273,272.83415" class="st0"/>
    </g>
    <g stroke="null" id="svg_8">
     <path stroke="null" id="svg_9" d="m720.470277,589.80001c-36.057971,0 -65.329751,-29.938537 -65.329751,-66.70244c0,-36.815611 29.322423,-66.70244 65.329751,-66.70244s65.329751,29.938537 65.329751,66.70244c0,36.763903 -29.322423,66.70244 -65.329751,66.70244zm0,-117.944393c-27.651197,0 -50.136785,22.958049 -50.136785,51.190245s22.485589,51.190245 50.136785,51.190245s50.136785,-22.958049 50.136785,-51.190245s-22.485589,-51.190245 -50.136785,-51.190245z" class="st2"/>
    </g>
    <g stroke="null" id="svg_10">
     <path stroke="null" id="svg_11" d="m303.372737,281.469272c-7.09005,-42.917074 -58.644846,-74.458538 -168.489985,-44.571708c-27.904413,91.00488 72.166585,101.087807 105.641752,95.193173c-48.769419,81.232197 -5.368181,104.190246 -28.562775,173.064394l9.875427,0c0,-0.051707 88.625631,-180.820492 81.53558,-223.685858z" class="st3"/>
    </g>
    <g stroke="null" id="svg_12">
     <path stroke="null" id="svg_13" d="m245.284966,529.509277l-44.414102,0c-4.203387,0 -7.596483,-3.46439 -7.596483,-7.756098s3.393096,-7.756098 7.596483,-7.756098l44.414102,0c4.203387,0 7.596483,3.46439 7.596483,7.756098s-3.393096,7.756098 -7.596483,7.756098z" class="st4"/>
    </g>
    <g stroke="null" id="svg_14">
     <path stroke="null" id="svg_15" d="m106.168047,589.80001c-50.744504,0 -91.968083,-42.141464 -91.968083,-93.90049s41.274222,-93.90049 91.968083,-93.90049c50.744504,0 91.968083,42.141464 91.968083,93.90049s-41.223579,93.90049 -91.968083,93.90049zm0,-172.340491c-42.33773,0 -76.775118,35.160976 -76.775118,78.388294s34.437388,78.388294 76.775118,78.388294s76.775118,-35.160976 76.775118,-78.388294s-34.437388,-78.388294 -76.775118,-78.388294z" class="st2"/>
    </g>
    <g stroke="null" id="svg_16">
     <polygon stroke="null" id="svg_17" points="392.40350341796875,495.84771728515625 377.2105712890625,495.84771728515625 377.2105712890625,210.2165985107422 355.23138427734375,187.77561950683594 322.41461181640625,187.77561950683594 322.41461181640625,172.263427734375 361.5111083984375,172.263427734375 392.40350341796875,203.75318908691406 " class="st5"/>
    </g>
    <g stroke="null" id="svg_18">
     <rect stroke="null" id="svg_19" height="397.4" width="30" class="st6" transform="matrix(0.4494079135041252,-0.23831902944369301,0.2334145901893749,0.45885074143704313,428.247915722736,675.5569054541179) " y="-869.50327" x="-169.879942"/>
    </g>
    <g stroke="null" id="svg_20">
     <rect stroke="null" id="svg_21" height="397.4" width="30" class="st6" transform="matrix(0.4494079135041252,-0.23831902944369301,0.2334145901893749,0.45885074143704313,464.17912672199645,825.7876579079868) " y="-869.50327" x="460.520058"/>
    </g>
    <g stroke="null" id="svg_22">
     <polygon stroke="null" id="svg_23" points="602.167724609375,503.6038818359375 93.40597534179688,503.6038818359375 174.33380126953125,351.2742004394531 720.4703369140625,351.2742004394531 720.4703369140625,366.7863464355469 183.3989715576172,366.7863464355469 118.9301528930664,488.09173583984375 596.49560546875,488.09173583984375 715.5072631835938,382.8673400878906 725.433349609375,394.6048889160156 " class="st7"/>
    </g>
    <g stroke="null" id="svg_24">
     <path stroke="null" id="svg_25" d="m203.403025,304.013663l-53.732454,0c0,-15.667317 -12.458232,-28.387318 -27.803126,-28.387318s-27.803126,12.72 -27.803126,28.387318c0,15.667317 12.458232,28.387318 27.803126,28.387318l81.53558,0c7.697769,0 13.926885,-6.36 13.926885,-14.219512l0,0c0,-7.807805 -6.229116,-14.167805 -13.926885,-14.167805z" class="st2"/>
    </g>
    <g stroke="null" id="svg_26">
     <path stroke="null" id="svg_27" d="m522.657869,304.013663l-53.732454,0c0,-15.667317 -12.458232,-28.387318 -27.803126,-28.387318s-27.803126,12.72 -27.803126,28.387318c0,15.667317 12.458232,28.387318 27.803126,28.387318l81.53558,0c7.697769,0 13.926885,-6.36 13.926885,-14.219512l0,0c0,-7.807805 -6.229116,-14.167805 -13.926885,-14.167805z" class="st2"/>
    </g>
    <g stroke="null" id="svg_28">
     <path stroke="null" id="svg_29" d="m238.903921,44.856584c-61.430223,-14.374634 -138.610487,150.726832 -112.073441,208.070248l122.60723,-14.633171c0,-91.935612 52.972806,-178.597077 -10.533789,-193.437077z" class="st8"/>
    </g>
    <g stroke="null" id="svg_30">
     <path stroke="null" id="svg_31" d="m126.83048,252.926832c98.602345,-57.705367 166.312327,-75.544392 183.936167,-35.936586s-36.918906,236.302444 -36.918906,236.302444c-6.178473,0 -9.875427,0 -9.875427,0c5.114965,-72.648782 -27.904413,-79.577563 -1.164794,-170.892687c-21.624654,49.845855 -140.07914,65.823416 -135.977039,-29.473171z" class="st9"/>
    </g>
    <polygon stroke="null" id="svg_32" points="211.96176147460938,505.10345458984375 209.2776336669922,513.9970703125 241.48670959472656,513.9970703125 221.837158203125,505.10345458984375 " class="st2"/>
    <g stroke="null" id="svg_33">
     <path stroke="null" id="svg_34" d="m223.103237,529.509277c-1.924442,0 -3.899528,-0.77561 -5.368181,-2.275122c-2.98795,-3.050732 -2.98795,-7.962927 0,-10.961951l50.744504,-51.810733c2.98795,-3.050732 7.799056,-3.050732 10.736362,0c2.98795,3.050732 2.98795,7.962927 0,10.961951l-50.744504,51.810733c-1.468653,1.55122 -3.443739,2.275122 -5.368181,2.275122z" class="st5"/>
    </g>
    <g stroke="null" id="svg_35">
     <path stroke="null" id="svg_36" d="m564.286594,529.509277l-44.414102,0c-4.203387,0 -7.596483,-3.46439 -7.596483,-7.756098s3.393096,-7.756098 7.596483,-7.756098l44.414102,0c4.203387,0 7.596483,3.46439 7.596483,7.756098s-3.393096,7.756098 -7.596483,7.756098z" class="st4"/>
    </g>
    <g stroke="null" id="svg_37">
     <path stroke="null" id="svg_38" d="m542.054222,529.509277c-1.924442,0 -3.899528,-0.77561 -5.368181,-2.275122c-2.98795,-3.050732 -2.98795,-7.962927 0,-10.961951l50.744504,-51.810733c2.98795,-3.050732 7.799056,-3.050732 10.736362,0c2.98795,3.050732 2.98795,7.962927 0,10.961951l-50.744504,51.810733c-1.468653,1.55122 -3.393096,2.275122 -5.368181,2.275122z" class="st5"/>
    </g>
    <g stroke="null" id="svg_39">
     <polygon stroke="null" id="svg_40" points="728.066650390625,523.0457763671875 712.8738403320312,523.0457763671875 712.8738403320312,314.3034362792969 690.8946533203125,291.8623962402344 658.0777587890625,291.8623962402344 658.0777587890625,276.3501892089844 697.1744384765625,276.3501892089844 728.066650390625,307.8916931152344 " class="st5"/>
    </g>
    <polygon stroke="null" id="svg_41" points="263.9723205566406,453.2927551269531 261.2882080078125,462.18634033203125 293.4466552734375,462.18634033203125 273.84771728515625,453.2927551269531 " class="st2"/>
    <g stroke="null" id="svg_42">
     <path stroke="null" id="svg_43" d="m557.601689,44.856584c-61.430223,-14.374634 -138.610487,150.726832 -112.073441,208.070248l122.60723,-14.633171c0,-91.935612 52.972806,-178.597077 -10.533789,-193.437077z" class="st10"/>
    </g>
    <g stroke="null" id="svg_44">
     <path stroke="null" id="svg_45" d="m445.528249,252.926832c98.602345,-57.705367 166.312327,-75.544392 183.936167,-35.936586c17.62384,39.607806 -36.918906,236.302444 -36.918906,236.302444c-6.178473,0 -9.875427,0 -9.875427,0c5.114965,-72.648782 -27.904413,-79.577563 -1.164794,-170.892687c-21.675297,49.845855 -140.07914,65.823416 -135.977039,-29.473171z" class="st11"/>
    </g>
    <polygon stroke="null" id="svg_46" points="582.670166015625,453.2927551269531 579.986083984375,462.18634033203125 612.1444702148438,462.18634033203125 592.54541015625,453.2927551269531 " class="st2"/>
    <g stroke="null" id="svg_47">
     <path stroke="null" id="svg_48" d="m296.586546,477.698544l-44.414102,0c-4.203387,0 -7.596483,-3.46439 -7.596483,-7.756098s3.393096,-7.756098 7.596483,-7.756098l44.414102,0c4.203387,0 7.596483,3.46439 7.596483,7.756098s-3.393096,7.756098 -7.596483,7.756098z" class="st4"/>
    </g>
    <g stroke="null" id="svg_49">
     <path stroke="null" id="svg_50" d="m615.53753,477.698544l-44.414102,0c-4.203387,0 -7.596483,-3.46439 -7.596483,-7.756098s3.393096,-7.756098 7.596483,-7.756098l44.414102,0c4.203387,0 7.596483,3.46439 7.596483,7.756098s-3.393096,7.756098 -7.596483,7.756098z" class="st4"/>
    </g>
    <path stroke="null" id="svg_51" d="m331.226506,187.775611l-17.62384,0c-4.203387,0 -7.596483,-3.46439 -7.596483,-7.756098l0,0c0,-4.291707 3.393096,-7.756098 7.596483,-7.756098l17.62384,0c4.203387,0 7.596483,3.46439 7.596483,7.756098l0,0c0,4.291707 -3.393096,7.756098 -7.596483,7.756098z" class="st2"/>
    <path stroke="null" id="svg_52" d="m666.889753,291.91415l-17.62384,0c-4.203387,0 -7.596483,-3.46439 -7.596483,-7.756098l0,0c0,-4.291707 3.393096,-7.756098 7.596483,-7.756098l17.62384,0c4.203387,0 7.596483,3.46439 7.596483,7.756098l0,0c0,4.291707 -3.393096,7.756098 -7.596483,7.756098z" class="st2"/>
    <polygon stroke="null" id="svg_53" points="669.8270874023438,284.15802001953125 663.75,264.97467041015625 635.744140625,260.2692565917969 635.744140625,274.3853759765625 646.48046875,274.3853759765625 652.8108520507812,284.15802001953125 " class="st12"/>
    <polygon stroke="null" id="svg_54" points="335.1260070800781,178.8819580078125 329.0487976074219,159.69851684570312 301.0431213378906,154.99317932128906 301.0431213378906,169.10926818847656 311.7795104980469,169.10926818847656 318.1098937988281,178.8819580078125 " class="st12"/>
    <path stroke="null" id="svg_55" d="m560.235137,53.284877c-72.87559,-23.630244 -66.494545,134.38732 -24.86582,190.179516c41.628725,55.792196 95.361179,37.539513 103.261521,32.937562c0,-6.256585 0,-17.477074 0,-17.477074c-29.018564,0 -78.294415,-20.165854 -72.571731,-82.835124c3.545025,-39.194147 42.590946,-107.085856 -5.82397,-122.804881z" class="st13"/>
    <path stroke="null" id="svg_56" d="m243.866956,53.284877c-56.771047,-25.905366 -80.927862,158.379516 -54.542745,185.319028c26.385116,26.939513 106.249471,-66.90927 112.326657,-66.90927c0,-5.429268 0,-17.890732 0,-17.890732c-33.930956,0 -58.796776,15.770732 -69.026706,26.21561c19.244423,-44.364879 53.074092,-107.551222 11.242794,-126.734637z" class="st14"/>
    <g stroke="null" id="svg_57">
     <circle stroke="null" id="svg_58" r="19.143122" cy="36.014632" cx="284.330887" class="st12"/>
     <path stroke="null" id="svg_59" d="m284.330887,13.987315c-11.901156,0 -21.574011,9.876098 -21.574011,22.027318l43.148021,0c0,-12.15122 -9.672855,-22.027318 -21.574011,-22.027318z" class="st14"/>
     <rect stroke="null" id="svg_60" height="2.792195" width="34.842534" class="st15" y="33.222437" x="293.649239"/>
    </g>
    <g stroke="null" id="svg_61">
     <circle stroke="null" id="svg_62" r="19.143106" cy="36.014632" cx="600.141992" class="st12"/>
     <path stroke="null" id="svg_63" d="m600.141992,13.987315c11.901156,0 21.574011,9.876098 21.574011,22.027318l-43.148021,0c0,-12.15122 9.672855,-22.027318 21.574011,-22.027318z" class="st13"/>
     <rect stroke="null" id="svg_64" height="5.4" width="68.8" class="st16" transform="matrix(-0.5064321765879256,-2.3218069858182507e-11,2.274025818914466e-11,-0.5170731816960145,1974.5988626513226,716.2307609507353) " y="1315.471496" x="2732.419688"/>
    </g>
   </g>
  </g>
 </g>
</svg>