<?xml version="1.0" encoding="utf-8"?>
<!-- Generator: Adobe Illustrator 23.0.6, SVG Export Plug-In . SVG Version: 6.00 Build 0)  -->
<svg version="1.1" id="Layer_1" xmlns="http://www.w3.org/2000/svg" xmlns:xlink="http://www.w3.org/1999/xlink" x="0px" y="0px"
	 viewBox="0 0 500 421" style="enable-background:new 0 0 500 421;" xml:space="preserve">
<style type="text/css">
	.st0{fill:#2A94F4;}
	.st1{fill:#CCE9FF;}
	.st2{fill-rule:evenodd;clip-rule:evenodd;fill:#CCE9FF;}
	.st3{fill:none;stroke:#D3D3D3;stroke-miterlimit:10;}
	.st4{fill:#0B4870;}
	.st5{fill-rule:evenodd;clip-rule:evenodd;fill:#0B4870;}
	.st6{fill:#FFBE55;}
	.st7{fill-rule:evenodd;clip-rule:evenodd;fill:#FCD2B1;}
	.st8{fill:#E54B16;}
	.st9{fill:#FCD2B1;}
	.st10{fill:#0E538C;}
	.st11{fill:#FBBD98;}
	.st12{fill:#A77860;}
	.st13{fill:#F8E9D6;}
	.st14{fill:#D3D3D3;}
</style>
<g id="BACKGROUND">
</g>
<g id="OBJECTS">
</g>
<g id="DESIGNED_BY_FREEPIK">
	<path class="st0" d="M247.02,320.31c-0.64-1.12-2.18-0.16-3.23-0.19c-1.49-0.05-3.16-0.66-4.66-0.98c-7.13-1.51-14.8-2.4-22-1.43
		c-8.47,1.14-16.78,3.53-25.31,4.29c-12.65,1.13-25.57,0.22-38.24-0.06c-10.31-0.23-20.54-1.76-30.84-2.11
		c-5.83-0.2-12.61-1.01-18.29,0.98c-1.97,0.69-8.39,3.65-7.44,7.05c1.13,4.03,11.28,3.13,13.86,3.19
		c5.99,0.14,11.91-0.34,17.85,0.86c6.13,1.24,11.66,5.18,17.81,6.23c14.99,2.57,29.68-3.82,44.66-0.46
		c3.43,0.77,6.78,2.15,10.27,2.46c2.83,0.25,7.29,0.85,9.92-0.67c1.83-1.06,0.72-1.28,1.22-3.01c0.65-2.24,3.71-2.5,5.52-2.66
		c8.99-0.8,17.93,0.73,26.83-1.79c5.99-1.69,11.08-5.59,17.38-5.64c5.43-0.05,10.81,2.52,16.15,1.59c2.97-0.52,5.55-2.12,8.07-3.5
		c-2.98,0.09-3.53-4.29-6.56-4.59c-2.94-0.29-6.07,0.52-8.94,0.98c-3.95,0.63-7.52,1.05-11.57,0.28c-4.32-0.82-8.41-1.32-12.81-1.23
		L247.02,320.31z"/>
	<g>
		<path class="st1" d="M234.84,320.89C234.84,320.89,234.84,320.89,234.84,320.89L234.84,320.89c0.42-0.09,0.95-0.25,1.52-0.48
			c0.01,0,0.02-0.01,0.03-0.01l0,0c0.1-0.04,0.21-0.09,0.31-0.14l0,0c0,0,0,0,0,0c1.26-0.58,2.7-1.54,3.72-2.97l0,0
			c0.03-0.04,0.07-0.09,0.1-0.13c0.21-0.31,0.4-0.64,0.57-1c0,0,0,0,0,0c0.05-0.1,0.09-0.19,0.13-0.3c0,0,0,0,0,0
			c0.01-0.01,0.01-0.02,0.02-0.04c1.16-2.81,0.82-3.25,0.01-2.76h0l0,0c-0.15,0.09-0.31,0.21-0.48,0.35c0,0,0,0.01-0.01,0.01
			c0,0,0,0,0,0c-0.13,0.11-0.26,0.22-0.39,0.35v0c0,0-0.01,0.01-0.01,0.01c-0.31,0.29-0.63,0.63-0.93,0.97c0,0,0,0,0,0
			c-0.01,0.01-0.02,0.02-0.03,0.04c-0.11,0.12-0.22,0.25-0.32,0.37c-0.01,0.01-0.02,0.02-0.03,0.04l0,0c0,0,0,0.01-0.01,0.01
			c-0.21,0.24-0.41,0.5-0.61,0.76l0,0c-0.02,0.04-0.05,0.07-0.08,0.1c-0.26,0.34-0.52,0.68-0.78,1.03v0
			c-0.1,0.13-0.19,0.26-0.29,0.39l0,0c-0.05,0.07-0.1,0.14-0.16,0.2c-0.12,0.17-0.25,0.33-0.38,0.49l0,0
			c-0.17,0.21-0.33,0.41-0.5,0.61l0,0c-0.05,0.05-0.09,0.11-0.14,0.16c-0.24,0.27-0.49,0.52-0.74,0.76l0,0
			c-0.01,0.01-0.01,0.01-0.02,0.02c-0.03,0.02-0.05,0.05-0.08,0.07l0,0c-0.05,0.04-0.1,0.09-0.15,0.13
			c-0.06,0.05-0.11,0.1-0.17,0.14c-0.1,0.08-0.2,0.15-0.3,0.22l0,0c-0.09,0.07-0.18,0.12-0.28,0.18l0,0
			c-0.05,0.03-0.11,0.07-0.16,0.1c-0.06,0.03-0.11,0.07-0.15,0.1c-0.01,0-0.01,0.01-0.02,0.01c-0.03,0.02-0.06,0.05-0.08,0.07l0,0
			C233.7,320.98,234.1,321.04,234.84,320.89z"/>
		<path class="st1" d="M211.36,327.89c0,0,0.04,0.01,0.1,0.02l0,0c0.02,0.01,0.04,0.01,0.06,0.02c0,0,0,0,0,0
			c0.04,0.01,0.09,0.02,0.15,0.04c0.02,0.01,0.03,0.01,0.05,0.01c0.01,0.01,0.02,0.01,0.04,0.01l0,0c0.21,0.05,0.5,0.12,0.85,0.2v0
			c0.02,0,0.04,0.01,0.06,0.01c0.16,0.04,0.34,0.08,0.53,0.11c0,0,0.01,0,0.01,0l0,0c0.16,0.04,0.33,0.07,0.51,0.1c0,0,0,0,0,0
			c0.06,0.01,0.13,0.02,0.2,0.04c0.86,0.16,1.89,0.33,3.02,0.46l0,0c0.09,0.01,0.19,0.02,0.29,0.03c0.17,0.02,0.34,0.04,0.52,0.05
			l0,0c0.02,0,0.04,0,0.06,0.01c0.4,0.04,0.81,0.07,1.23,0.1c0.01,0,0.02,0,0.02,0l0,0c0.05,0,0.1,0.01,0.15,0.01l0,0
			c0.07,0,0.15,0.01,0.22,0.01c0,0,0,0,0,0c0.07,0,0.14,0.01,0.22,0.01c0,0,0,0,0,0c0.01,0,0.01,0,0.02,0c0.07,0,0.15,0,0.22,0.01
			c0.03,0,0.06,0,0.08,0v0c0.23,0.01,0.45,0.01,0.68,0.02c0.04,0,0.08,0,0.12,0c0,0,0,0,0,0c1.02,0.01,2.06-0.04,3.07-0.17
			c0.04-0.01,0.09-0.01,0.13-0.02l0,0c0.1-0.01,0.2-0.03,0.3-0.04l0,0c0,0,0.01,0,0.01,0c0.19-0.03,0.38-0.06,0.57-0.1
			c0.01,0,0.01,0,0.02,0l0,0c0.45-0.08,0.89-0.18,1.32-0.3c0,0,0,0,0,0c0.06-0.02,0.12-0.03,0.18-0.05c1.56-0.46,2.95-1.18,4-2.29
			c3.33-3.53-0.05-1.83-1.96-0.93c-0.08,0.04-0.15,0.07-0.22,0.1c-0.3,0.14-0.55,0.25-0.71,0.3c-0.03,0.01-0.05,0.01-0.08,0.02
			c-0.01,0-0.03,0.01-0.04,0.01c-0.02,0-0.03,0-0.05,0c-0.01,0-0.02,0-0.02,0c-0.01,0-0.01-0.01-0.01-0.02c0-0.01,0-0.01,0-0.02
			c0-0.01,0.01-0.02,0.02-0.04c0.06-0.1,0.26-0.29,0.65-0.62c0.35-0.29,0.67-0.57,0.96-0.83c0.07-0.06,0.14-0.12,0.21-0.19l0,0
			c1.42-1.3,1.9-2.07,0.95-2.06c0,0,0,0,0,0c-0.01,0-0.02,0-0.03,0c-0.17,0-0.39,0.03-0.66,0.09l0,0c-0.01,0-0.02,0-0.02,0.01
			c-0.08,0.02-0.16,0.03-0.24,0.05c-0.01,0-0.01,0-0.01,0l0,0c-0.65,0.16-1.53,0.44-2.67,0.86c-0.09,0.03-0.17,0.06-0.25,0.1
			c-0.06,0.02-0.13,0.05-0.19,0.07l0,0c-0.07,0.03-0.14,0.06-0.21,0.09c0,0,0,0,0,0c-0.1,0.04-0.21,0.09-0.31,0.13l0,0
			c-1.55,0.65-2.54,1.29-3.58,1.88c-0.16,0.09-0.33,0.18-0.5,0.28c-0.49,0.27-1.02,0.52-1.64,0.77c-0.11,0.04-0.23,0.09-0.34,0.13
			c-0.05,0.02-0.11,0.04-0.16,0.06c0,0,0,0,0,0c-0.05,0.02-0.1,0.03-0.15,0.05c-0.84,0.29-1.86,0.56-3.15,0.79l0,0
			c-0.19,0.04-0.39,0.07-0.6,0.11c-0.62,0.1-1.29,0.2-2.03,0.29c-0.1,0.01-0.19,0.02-0.29,0.03v0c-0.46,0.05-0.94,0.1-1.46,0.15
			c-0.04,0-0.07,0.01-0.11,0.01l0,0C211.42,327.88,211.39,327.89,211.36,327.89z"/>
		<path class="st1" d="M204.62,322.33L204.62,322.33c0.02,0,0.03,0,0.05,0l0,0c0,0,0,0,0.01,0c0.45-0.01,0.96-0.02,1.54-0.05
			c0,0,0,0,0,0c0.05,0,0.11-0.01,0.16-0.01c0.08-0.01,0.17-0.01,0.26-0.02c0.03,0,0.06,0,0.09,0h0c0.44-0.02,0.92-0.06,1.42-0.09
			l0,0c0.01,0,0.01,0,0.02,0c0.81-0.06,1.68-0.15,2.61-0.26c0,0,0,0,0,0c0.01,0,0.02-0.01,0.03-0.01c0.09-0.01,0.17-0.02,0.26-0.03
			c0.1-0.01,0.2-0.02,0.3-0.04v0c0.26-0.03,0.53-0.07,0.8-0.11l0,0c0.07-0.01,0.14-0.02,0.21-0.03l0,0c0.07-0.01,0.14-0.02,0.2-0.03
			c0.02,0,0.04-0.01,0.06-0.01l0,0c0.85-0.13,1.74-0.28,2.65-0.46l0,0c0.01,0,0.01,0,0.02-0.01c0.41-0.08,0.82-0.16,1.23-0.25l0,0
			c0.06-0.01,0.13-0.03,0.19-0.04c0.32-0.07,0.65-0.15,0.97-0.22c0.02-0.01,0.04-0.01,0.06-0.02c0,0,0,0,0,0
			c0.23-0.05,0.45-0.11,0.68-0.17l0,0c0.01,0,0.01,0,0.01,0c0.53-0.13,1.07-0.28,1.61-0.44l0,0c0.13-0.04,0.26-0.08,0.39-0.11h0
			c0.68-0.2,1.36-0.42,2.04-0.65c0,0,0,0,0,0c0.1-0.04,0.2-0.07,0.3-0.1l0,0c0.18-0.06,0.36-0.13,0.54-0.2l0,0
			c0.08-0.03,0.15-0.06,0.23-0.08l0,0c0.13-0.05,0.25-0.09,0.38-0.14l0,0c0.03-0.01,0.07-0.02,0.1-0.04
			c0.41-0.16,0.83-0.32,1.24-0.5v0c0.02-0.01,0.03-0.01,0.04-0.02c0.02-0.01,0.05-0.02,0.07-0.03c0,0,0.01,0,0.01-0.01l0,0
			c5.37-2.28,10.61-5.78,14.32-11.18c0.39-0.56,0.74-1.08,1.06-1.56c0.04-0.06,0.08-0.12,0.12-0.17l0,0
			c0.34-0.51,0.66-0.98,0.93-1.41v0c0.02-0.02,0.03-0.04,0.04-0.07c0.02-0.03,0.04-0.06,0.06-0.09c0.02-0.03,0.04-0.06,0.06-0.09v0
			c0.05-0.08,0.1-0.16,0.15-0.23l0,0c0.01-0.01,0.02-0.02,0.03-0.04c0.3-0.48,0.56-0.89,0.77-1.25v0c0-0.01,0.01-0.01,0.01-0.02
			c0.24-0.41,0.42-0.74,0.55-1c0.01-0.02,0.01-0.03,0.02-0.05c0.02-0.04,0.04-0.09,0.06-0.12v0l0,0c0.18-0.41,0.17-0.59,0.02-0.6
			l0,0l0,0c-0.03,0-0.07,0.01-0.11,0.02c-0.01,0-0.02,0-0.02,0.01c-0.04,0.02-0.09,0.04-0.14,0.06c-0.01,0-0.01,0-0.02,0.01l0,0
			c-0.2,0.11-0.46,0.29-0.77,0.54c0,0,0,0,0,0c-0.01,0.01-0.01,0.01-0.02,0.02c-0.08,0.06-0.15,0.12-0.23,0.19
			c-0.01,0.01-0.02,0.01-0.02,0.02c-0.39,0.32-0.85,0.72-1.35,1.16v0c-0.08,0.07-0.16,0.15-0.24,0.22l0,0
			c-0.01,0.01-0.01,0.01-0.02,0.02v0c-0.07,0.07-0.15,0.14-0.23,0.2l0,0c-0.14,0.12-0.27,0.25-0.42,0.37
			c-0.1,0.09-0.2,0.18-0.3,0.27c0,0,0,0,0,0c-0.48,0.43-0.97,0.87-1.48,1.32c-0.06,0.05-0.11,0.1-0.17,0.14l0,0
			c-0.12,0.11-0.24,0.21-0.36,0.32c0,0,0,0,0,0c-0.05,0.04-0.1,0.09-0.15,0.13c-0.67,0.58-1.35,1.16-2.01,1.7
			c-0.04,0.04-0.09,0.07-0.13,0.11c-0.17,0.14-0.35,0.28-0.52,0.42c-0.04,0.04-0.09,0.07-0.13,0.1l0,0c-0.46,0.36-0.92,0.7-1.35,1
			c-0.06,0.04-0.13,0.09-0.19,0.13c-1.08,0.73-2.03,1.23-2.73,1.3c-1.1,0.12-1.16-0.36-0.71-1.14c0,0,0,0,0,0
			c0.04-0.08,0.1-0.15,0.15-0.23c0,0,0,0,0,0c0.05-0.07,0.1-0.14,0.15-0.22c0.02-0.03,0.05-0.07,0.08-0.1
			c0.33-0.43,0.75-0.92,1.22-1.42h0c0.05-0.05,0.11-0.11,0.16-0.17l0,0c0.02-0.02,0.04-0.04,0.06-0.06l0,0
			c0.04-0.04,0.07-0.07,0.1-0.11c0.08-0.08,0.15-0.16,0.23-0.24c0.06-0.06,0.11-0.11,0.17-0.17c0,0,0,0,0,0
			c0.54-0.55,1.09-1.1,1.59-1.59c0.01-0.01,0.02-0.03,0.04-0.04l0,0c0.15-0.15,0.29-0.29,0.42-0.43c0,0,0,0,0,0
			c0.05-0.05,0.1-0.11,0.15-0.16c0,0,0,0,0,0c1.09-1.13,1.53-1.75-0.02-1l0,0c-0.01,0-0.01,0-0.01,0.01
			c-0.12,0.06-0.26,0.13-0.41,0.2c-0.09,0.05-0.17,0.09-0.25,0.12c-0.04,0.02-0.08,0.03-0.13,0.05c-0.03,0.01-0.07,0.03-0.1,0.04
			c-0.03,0.01-0.06,0.02-0.09,0.03c-0.05,0.01-0.1,0.03-0.15,0.04c-0.06,0.01-0.12,0.02-0.17,0.02c0,0,0,0-0.01,0
			c-0.05,0-0.1-0.01-0.14-0.02c-0.23-0.06-0.33-0.28-0.33-0.61c0,0,0,0,0,0c0-0.1,0.01-0.22,0.03-0.34l0,0
			c0.02-0.16,0.06-0.34,0.12-0.54c0,0,0,0,0,0c0.03-0.1,0.06-0.2,0.09-0.31c0.07-0.21,0.14-0.43,0.23-0.67
			c0.02-0.06,0.04-0.11,0.07-0.17c0,0,0,0,0,0c0.12-0.32,0.27-0.66,0.42-1.01c0.02-0.06,0.05-0.11,0.08-0.17l0,0
			c0.02-0.04,0.04-0.09,0.06-0.13c0,0,0,0,0,0c0.06-0.14,0.13-0.28,0.19-0.42c0.07-0.15,0.14-0.3,0.21-0.44l0,0
			c0.03-0.06,0.06-0.12,0.08-0.18c0.02-0.04,0.04-0.09,0.06-0.13c0.05-0.11,0.1-0.21,0.15-0.32l0,0c0.03-0.06,0.06-0.13,0.09-0.19
			l0,0c0.05-0.1,0.09-0.19,0.14-0.29c0,0,0,0,0,0c0.29-0.59,0.57-1.15,0.81-1.64c0.01-0.02,0.02-0.04,0.03-0.06c0,0,0,0,0,0
			c0.38-0.8,0.66-1.42,0.71-1.72c0,0,0,0,0,0l0,0c0.11-0.62-0.86,0.3-4.13,4.37l0,0c-0.06,0.07-0.12,0.15-0.18,0.23l0,0
			c-0.06,0.07-0.11,0.14-0.17,0.21c-0.96,1.19-1.9,2.32-2.83,3.38l0,0c-0.02,0.02-0.05,0.05-0.07,0.08
			c-0.08,0.09-0.16,0.18-0.24,0.27c0,0,0,0,0,0c-0.04,0.04-0.07,0.08-0.11,0.12c-1.34,1.5-2.64,2.86-3.92,4.11
			c-0.11,0.11-0.22,0.21-0.33,0.32c-0.16,0.16-0.32,0.31-0.48,0.46c-0.01,0.01-0.03,0.03-0.04,0.04l0,0
			c-0.07,0.06-0.14,0.13-0.21,0.2c-0.06,0.05-0.11,0.11-0.17,0.16l0,0c-0.25,0.23-0.5,0.46-0.75,0.69l0,0
			c-0.01,0.01-0.01,0.01-0.02,0.02c-0.36,0.32-0.71,0.63-1.06,0.94l0,0c-0.01,0.01-0.01,0.01-0.02,0.02
			c-0.8,0.69-1.58,1.33-2.35,1.93c-0.02,0.02-0.04,0.03-0.06,0.05l0,0c-0.22,0.17-0.44,0.34-0.66,0.5l0,0
			c-0.06,0.04-0.11,0.09-0.17,0.12l0,0c-0.03,0.02-0.05,0.04-0.08,0.06c0,0,0,0,0,0c-0.03,0.02-0.07,0.05-0.1,0.07
			c-0.3,0.22-0.59,0.44-0.88,0.64c-0.12,0.09-0.24,0.17-0.36,0.25c-0.97,0.68-1.9,1.28-2.8,1.82l0,0c-0.01,0-0.01,0.01-0.02,0.01
			c-0.47,0.28-0.93,0.55-1.38,0.79l0,0c-0.09,0.05-0.18,0.1-0.27,0.15l0,0c-1.08,0.58-2.09,1.07-3.03,1.47
			c-0.05,0.02-0.11,0.04-0.16,0.07c0,0,0,0,0,0c-1.51,0.63-2.83,1.05-3.92,1.32l-2.3,3.33c0,0,0.65,0.03,1.78,0.01
			C204.59,322.33,204.6,322.33,204.62,322.33z"/>
		<path class="st1" d="M244.04,297.31c0,0,0.02-0.02,0.04-0.05c0,0,0,0,0,0c0-0.01,0.01-0.02,0.02-0.03
			c0.18-0.23,0.71-0.94,1.24-1.89l0,0c0,0,0.01-0.01,0.01-0.02c0.06-0.11,0.12-0.22,0.18-0.34l0,0c0,0,0,0,0,0
			c0.03-0.05,0.05-0.1,0.08-0.15c0-0.01,0.01-0.01,0.01-0.02v0c0.15-0.29,0.29-0.59,0.42-0.9c0.02-0.06,0.04-0.12,0.07-0.17l0,0
			c0.18-0.46,0.33-0.93,0.43-1.41c0-0.02,0.01-0.04,0.01-0.06l0,0c0.17-0.87,0.16-1.74-0.16-2.52l0,0c0-0.01,0-0.01-0.01-0.02
			c-0.04-0.1-0.09-0.2-0.14-0.29c0-0.01-0.01-0.02-0.01-0.02c-0.05-0.09-0.11-0.19-0.18-0.28c0-0.01-0.01-0.01-0.01-0.02
			c0,0,0,0,0,0c-0.01-0.02-0.02-0.03-0.03-0.05h0c-0.02-0.02-0.04-0.05-0.06-0.08c-0.07-0.08-0.13-0.16-0.19-0.23
			c-0.02-0.03-0.05-0.05-0.07-0.08c-0.03-0.04-0.06-0.07-0.09-0.1c-0.03-0.03-0.06-0.06-0.09-0.09c-0.02-0.01-0.03-0.03-0.05-0.04
			c-0.04-0.03-0.07-0.07-0.1-0.09l0,0l0,0c-0.56-0.44-0.7,0.14-0.73,1.3l0,0c0,0,0,0,0,0.01c-0.01,0.53-0.01,1.17-0.01,1.89l0,0
			c0,0.1,0,0.19,0,0.29l0,0c0,0.3-0.01,0.6-0.02,0.92c-0.01,0.13-0.01,0.26-0.01,0.39s-0.01,0.26-0.02,0.4v0
			c0,0.07-0.01,0.13-0.01,0.2v0c-0.03,0.53-0.08,1.08-0.15,1.64l0,0c-0.01,0.11-0.03,0.22-0.05,0.33c0,0,0,0,0,0
			C244.28,296.25,244.17,296.79,244.04,297.31z"/>
	</g>
	<path class="st2" d="M203.29,323.94c-0.11-0.06-0.2-0.02-0.23-0.21c-1.23,0.39-2.72,0.31-3.99,0.36
		c-4.16,0.18-8.32-0.83-12.44-0.92c-1.39-0.03-9.94,0.41-7.97,3.47c0.66,1.03,4.57,1.86,5.72,2.1c3.28,0.68,6.33-1.12,9.58-0.77
		c3.43,0.37,7.03,1.12,10.47,0.43c2.34-0.47,5.07-2.13,7.45-1.51c-1.57-0.45-3.32-0.97-4.8-1.66c2.84,0.04,6.24,0.2,9.06-0.13
		c2.1-0.25,5.32-1.28,6.8-2.89c-2.78,2.35-8.17,1.82-11.47,1.3c-2.8-0.44-6.62-0.34-9.36,0.45L203.29,323.94z"/>
	<line class="st3" x1="196.95" y1="255.94" x2="201.67" y2="251.03"/>
	<path class="st4" d="M183.73,252.1c-0.39-0.18-0.52-0.75-0.28-1.27l0,0c0.24-0.52,0.75-0.79,1.14-0.61l25.58,11.82
		c0.39,0.18,0.52,0.75,0.28,1.27l0,0c-0.24,0.52-0.75,0.79-1.14,0.61L183.73,252.1z"/>
	<path class="st5" d="M164.21,275.96c-0.48,3.58,1.07,6.85,1.07,6.85c11.38-1.01,14.66-5.61,14.66-5.61l-0.72-3.44
		C179.22,273.76,164.01,276.64,164.21,275.96z"/>
	
		<ellipse transform="matrix(0.9894 -0.145 0.145 0.9894 -36.5805 27.4005)" class="st4" cx="169.68" cy="264.64" rx="9.05" ry="9.72"/>
	<path class="st6" d="M153.98,324.41c1.29,0.55,49.8,4.79,57.1-7.45c0,0,2.14-4.32,0.06-4.3l-0.01,0.01
		c-1.07-2.82-8.25-1.56-19.13-0.45c-0.19,0.02-0.39,0.04-0.58,0.06v0c-3.17,0.32-6.63,0.62-10.34,0.8
		c-0.29,0.02-0.56,0.03-0.84,0.05l0.01,0c-0.26,0.01-0.52,0.03-0.77,0.05c-0.1,0.01-0.2,0.01-0.3,0.02
		c-0.31,0.02-0.62,0.04-0.93,0.06v0c-2.43,0.16-4.6,0.37-6.55,0.62h-0.01c-0.04,0.01-0.07,0.01-0.1,0.01
		c-0.08,0.01-0.17,0.02-0.25,0.03c-0.32,0.04-0.65,0.09-0.96,0.13c-0.1,0.01-0.2,0.03-0.3,0.04c-0.37,0.05-0.72,0.11-1.07,0.17
		c-0.08,0.01-0.16,0.03-0.25,0.04c-0.16,0.03-0.32,0.05-0.48,0.08v0c-2.36,0.42-4.32,0.91-5.97,1.47h-0.01
		c-0.06,0.02-0.12,0.04-0.17,0.06c-0.13,0.04-0.25,0.09-0.38,0.13c-0.13,0.05-0.27,0.1-0.4,0.15c-0.11,0.04-0.23,0.08-0.34,0.13
		c-0.05,0.02-0.11,0.04-0.16,0.06l0.01,0c-0.51,0.21-1,0.42-1.45,0.64h-0.01c-0.05,0.02-0.08,0.04-0.13,0.07
		c-0.18,0.09-0.35,0.18-0.51,0.27c-0.06,0.04-0.13,0.07-0.18,0.1c-0.23,0.13-0.45,0.26-0.67,0.39l0,0l0,0
		c-0.61,0.38-1.15,0.78-1.64,1.19h0c-0.03,0.02-0.06,0.05-0.09,0.08c-0.15,0.12-0.29,0.25-0.43,0.38c-0.01,0.01-0.03,0.03-0.04,0.04
		l0,0c-0.8,0.75-1.45,1.53-2.05,2.33c-0.22,0.22-0.31,0.43-0.29,0.62l-0.01,0C153.36,322.48,152.69,323.86,153.98,324.41z"/>
	<g>
		<g>
			<g>
				<path class="st7" d="M194.37,289.14c2.37,0.95,3.24,2.23,2.84,5.12c-0.72,5.25-0.61,13.12-1.14,18.38
					c-0.09,0.86-0.13,1.75-0.78,2.41c-1.19,0.72-0.6,1.07-1.95,0.73c-0.98-0.63-0.86-2.09-1.05-2.98c-0.66-3.02-0.83-7.04-1.08-9.01
					c-0.6-4.73-0.22-2.16-0.39-6.97c-0.04-1.12-0.91-1.59-1.97-1.82c-2.05-0.46-3.84-1.59-5.72-2.46c-1.14-0.53-2.29-0.83-3.55-0.76
					c-1.17,0.06-2.86-0.2-2.33,2.58c0.28,1.48,0.54,2.95,0.96,4.4c1.33,4.58,0.43,6.92-3.43,9.35c-1.69,1.06-3.33,2.22-5.06,3.19
					c-1.79,1-2.43,1.1-5.36,3.02c-0.74,0.41-1.21,1.29-2.18,1.27c-1.02-0.49-1.88-1.21-2.66-2.04c1.88-1.92,3.42-3.05,6.1-5.48
					c3.38-3.08,2.67-2.3,6.88-4.86c-2.29-4.47-5.52-16.93-5.13-18.43c4.13,0,7.74-1.56,11.13-3.82c5.31,0.63,9.72,3.31,13.86,6.62
					C193.02,288.11,193.7,288.63,194.37,289.14z"/>
			</g>
		</g>
	</g>
	<path class="st8" d="M166.74,287.76c-0.17-0.33-0.33-0.68-0.48-1.06C166.43,287.04,166.59,287.4,166.74,287.76z"/>
	<path class="st0" d="M165.46,284.41l-0.02-0.15c0-0.06-0.01-0.11-0.02-0.17l-0.03-0.18c0-0.02,0-0.03,0-0.05
		c-0.01-0.06-0.01-0.12-0.02-0.18c0,0,0,0,0-0.01c-0.01-0.12-0.02-0.24-0.03-0.36c0-0.03-0.01-0.07-0.01-0.1
		c-0.01-0.14-0.03-0.27-0.04-0.42c0,0,1.47-0.08,3.56-0.49c0.03-0.01,0.07-0.01,0.1-0.02c0.35-0.07,0.7-0.14,1.08-0.23
		c0.02-0.01,0.05-0.01,0.07-0.02h0c0.07-0.01,0.13-0.03,0.2-0.05c0,0,0,0,0,0c0.18-0.04,0.36-0.09,0.55-0.14h0
		c0.04-0.01,0.08-0.02,0.12-0.03c0.02-0.01,0.03-0.01,0.05-0.02l0,0c0.07-0.02,0.13-0.04,0.2-0.05l-0.01,0
		c0.04-0.01,0.09-0.02,0.13-0.04l0.02,0c0.02-0.01,0.04-0.01,0.07-0.02c0.06-0.02,0.13-0.03,0.19-0.05c0.03-0.01,0.07-0.02,0.1-0.03
		c0.12-0.04,0.25-0.07,0.37-0.11c0,0,0-0.01,0,0c0.02-0.01,0.04-0.01,0.07-0.02c0.04-0.01,0.08-0.02,0.12-0.03c0,0,0,0-0.01,0
		c0.05-0.02,0.1-0.03,0.15-0.05c0.01,0,0.01-0.01,0.02-0.01c0.05-0.02,0.1-0.03,0.14-0.05c0.08-0.03,0.16-0.05,0.24-0.08
		c0.03-0.01,0.07-0.02,0.1-0.03c0,0,0,0,0,0c0.06-0.02,0.12-0.04,0.19-0.07c0.02-0.01,0.04-0.01,0.06-0.02
		c0.29-0.1,0.57-0.2,0.86-0.32c0.01,0,0.02-0.01,0.03-0.01c0.16-0.06,0.32-0.13,0.49-0.2c0.03-0.01,0.06-0.02,0.09-0.04
		c0,0,0,0,0,0.01c0.19-0.08,0.39-0.17,0.59-0.26c0.2-0.1,0.41-0.19,0.61-0.29c0,0,0,0,0,0c0.02-0.01,0.04-0.02,0.06-0.03
		c0.23-0.11,0.45-0.23,0.68-0.36c0.02-0.01,0.03-0.01,0.04-0.02c0.13-0.07,0.26-0.15,0.4-0.23c0.35-0.2,0.69-0.41,1.02-0.64
		c0.01-0.01,0.03-0.02,0.04-0.03c0.06-0.04,0.12-0.08,0.18-0.12c0.01-0.01,0.02-0.01,0.02-0.02c0.12-0.09,0.24-0.17,0.35-0.27
		c0.2-0.14,0.39-0.3,0.58-0.46c0.01-0.01,0.02-0.02,0.03-0.02c0.24-0.2,0.48-0.41,0.71-0.64c0,0,1.72,1.45,4.16,3.22
		c0.05,0.03,0.09,0.07,0.14,0.1c0.49,0.35,1,0.72,1.54,1.08c0.31,0.21,0.63,0.43,0.95,0.64c0.01,0,0.01,0.01,0.02,0.01
		c0.31,0.21,0.63,0.42,0.95,0.62c0.02,0.01,0.04,0.02,0.06,0.04c0.33,0.21,0.66,0.42,1,0.62c0.01,0,0.01,0.01,0.02,0.01
		c0.33,0.2,0.66,0.39,0.99,0.58c0.09,0.05,0.19,0.11,0.28,0.16c0.25,0.14,0.5,0.27,0.75,0.41c0.05,0.02,0.09,0.04,0.14,0.07
		c0.25,0.13,0.5,0.25,0.74,0.37c1.16,0.57,2.29,1.02,3.33,1.3l0.09,0.02c0.42,0.11,0.83,0.19,1.22,0.23l0,0
		c0.04,0.01,0.08,0.02,0.11,0.02c0,0,0.02,0.45-0.04,1.2c0,0.01,0,0.02-0.01,0.03c-0.05,0.63-0.17,1.45-0.4,2.39v0
		c-0.61,2.46-2.05,5.67-5.4,7.95l0,0c-0.07,0.05-0.15,0.1-0.23,0.14c-0.01,0.01-0.02,0.01-0.03,0.02c-0.05,0.03-0.09,0.06-0.15,0.09
		c-0.09,0.06-0.18,0.11-0.27,0.17l-1.16-0.69l-0.8-0.48c0,0-2.46-0.72-5.4-1.31c0.11,0.58,0.23,1.14,0.38,1.64l0.03,0.09
		c0.13,0.42,0.27,0.81,0.43,1.16h0c0.02,0.03,0.03,0.08,0.05,0.11c0,0-0.38,0.25-1.05,0.59c-0.01,0-0.02,0.01-0.03,0.01
		c-0.56,0.28-1.32,0.61-2.25,0.9l0,0c-2.42,0.77-5.91,1.21-9.6-0.45v-0.01c-0.08-0.03-0.16-0.08-0.24-0.12
		c-0.01,0-0.02-0.01-0.04-0.01c-0.05-0.02-0.1-0.05-0.15-0.08c-0.1-0.05-0.19-0.09-0.29-0.14l-0.02-1.35l-0.01-0.93
		c0,0-1.16-4.27-2.76-7.97c-0.16-0.36-0.32-0.71-0.48-1.06c-0.12-0.3-0.24-0.62-0.34-0.94c-0.21-0.65-0.4-1.35-0.55-2.1
		c-0.02-0.1-0.04-0.2-0.06-0.3c-0.02-0.12-0.05-0.24-0.07-0.36l0,0l-0.01-0.02c0,0,0,0,0-0.01l-0.01-0.09
		C165.49,284.67,165.48,284.54,165.46,284.41z"/>
	<path class="st7" d="M195.81,314.01c1.3,0.85,4,1.2,5.57,1.46c0.84,0.14,2.11-0.12,1.54,1.39c-0.64,0.16-2.57,0.66-3.2,0.63
		c-2.24-0.11-4.18-0.73-6.38,0.13c-1,0.39-1.24-0.43-1.55-1.3c-0.06-1,0.28-1.35,0.7-2.16
		C193.67,313.99,194.64,314.19,195.81,314.01z"/>
	<path class="st7" d="M162.11,314.5c0.91,1.66,1.26,2.69,4.99,4.13c-0.28,0.24-0.68,0.46-0.9,0.63c-1.26,0.93-2.83,0.44-4.11-0.71
		c-0.69-0.62-1.39-1.19-2.25-1.56c-1.82-0.78-1.98-1.44-0.79-3.05c0.11-0.13,0.22-0.26,0.33-0.39c0.29-0.16,0.58-0.33,0.87-0.49
		C161.1,313.23,161.71,313.71,162.11,314.5z"/>
	<g>
		<path class="st4" d="M165.99,262.45c-3.64-2.81-3.55-3.31-3.55-3.31s0.08-1.1,1.2-2.62c1.12-1.53,3-0.72,3.57-0.22
			c0.58,0.5,5.5,4.79,6.47,5.89c0.96,1.1,1.71,1.42,2.43,1.26c0.23-0.05,1.47-0.68,3.06-1.49c3.35-1.73,8.23-4.36,8.23-4.36
			l1.32,2.13c0,0-3.8,3.07-7.39,5.64h0c-2.62,1.89-4.98,3.53-5.29,3.57C175.31,269.03,169.63,265.25,165.99,262.45z"/>
	</g>
	<g>
		<path class="st9" d="M179.16,261.95c3.35-1.73,8.79-4.73,8.79-4.73l0.88,2.4c0,0-3.92,3.16-7.51,5.74h0
			C178.99,263.27,179.16,261.95,179.16,261.95z"/>
	</g>
	<g>
		<g>
			<g>
				<path class="st9" d="M188.46,259.92c0,0,3.35-2.84,3.78-3.17c0.43-0.33,1.66-0.32,2.59-0.88c0.93-0.56,0.09-1.58,0.09-1.58
					c0.41-0.25,0.27-0.78-0.01-0.67c-0.28,0.11-3.4-0.38-3.97-0.27c-0.57,0.11-1.62,1.34-1.85,1.96c-0.3,0.81-1.75,2.77-1.75,2.77
					C186.66,258.56,188.46,259.92,188.46,259.92z"/>
			</g>
		</g>
	</g>
	<g>
		<g>
			<path class="st9" d="M170.55,255.76c-0.05-0.09-0.23-0.43-0.28-0.63c-0.05-0.19-0.09-0.42-0.13-0.66
				c-0.02-0.09-0.03-0.18-0.04-0.27c-0.04-0.26-0.07-0.51-0.1-0.74c-0.05-0.43-0.08-0.75-0.08-0.75s-5.93-2.5-5.62-1.62
				c1.14,3.3,1.42,4.97,1.42,4.97C167.74,257.11,170.85,256.25,170.55,255.76z"/>
		</g>
		<g>
			<path class="st9" d="M163.03,244.2c-0.39,2.16,1.18,6.9,2.37,7.83c1.2,0.93,5.2,1.69,6.03,1.48c0.83-0.21,1.07-3.12,1.25-3.38
				c0.18-0.26,1.17-0.67,0.98-1.01c-0.19-0.33-1.57-2.35-1.13-2.71c0.54-0.43-0.98-2.48-0.98-2.48
				C168.88,240.38,163.42,242.05,163.03,244.2z"/>
		</g>
		<g>
			<path class="st10" d="M167.92,245.86c-1.18,0.47-0.09,2.43-0.09,2.43s-1.66,0.11-2.33,0.76c-0.43,0.42-0.94,2.83-0.94,2.83
				s-0.18-0.14-1.89-3.92c-1.99-4.4,0.6-4.96,1.04-5.15c0.45-0.19,4.15-2.76,6.98-2.24c2.22,0.4,1.47,4.27,1.47,4.27
				C169.51,247.12,169.1,245.38,167.92,245.86z"/>
		</g>
		<g>
			<path class="st11" d="M166.02,249.66c-0.19,0-2.23-2.06-1.29-2.93c0.95-0.87,1.47,0.3,1.62,0.57
				C167.62,249.56,166.21,249.66,166.02,249.66z"/>
		</g>
		<path class="st12" d="M170,253.46c0,0-2.88-0.51-3.96-1.06c0,0,0.83,1.48,4.1,2.07c-0.02-0.09-0.03-0.18-0.04-0.27
			C170.06,253.95,170.03,253.69,170,253.46z"/>
	</g>
	<path class="st6" d="M162.53,255.4c-5.8,2.28,0.42,23.7,0.64,23.5c6.52,2.49,14.69-4.45,16.05-5.14c1.36-0.69-1.11-7.56-1.11-7.56
		s-2.88,0.43-2.86,0.25c-7.7-6.92-1-10.02-1-10.02C171.52,253.82,162.53,255.4,162.53,255.4z"/>
	<g>
		<g>
			<path class="st4" d="M174.88,264.06c-3.29-3.21-3.13-3.7-3.13-3.7s0.21-1.08,1.5-2.46c1.29-1.38,3.06-0.36,3.58,0.2
				c0.51,0.56,4.9,5.4,5.73,6.61c0.83,1.2,1.54,1.61,2.26,1.53c0.23-0.02,1.54-0.49,3.21-1.12c3.54-1.33,8.69-3.36,8.69-3.36
				l1.06,2.27c0,0-4.14,2.6-8,4.73h0c-2.83,1.57-5.36,2.92-5.67,2.93C183.36,271.7,178.17,267.28,174.88,264.06z"/>
		</g>
		<g>
			<path class="st9" d="M188.02,265.12c3.53-1.33,9.28-3.67,9.28-3.67l0.6,2.49c0,0-4.27,2.68-8.13,4.82l0,0
				C187.7,266.41,188.02,265.12,188.02,265.12z"/>
		</g>
		<g>
			<g>
				<path class="st9" d="M197.49,264.2c0,0,3.66-2.43,4.12-2.7c0.47-0.27,1.69-0.12,2.67-0.57c0.99-0.45,0.28-1.56,0.28-1.56
					c0.43-0.2,0.36-0.75,0.07-0.67s-3.34-0.78-3.92-0.73c-0.58,0.05-1.77,1.14-2.07,1.73c-0.39,0.76-2.06,2.54-2.06,2.54
					C195.87,262.62,197.49,264.2,197.49,264.2z"/>
			</g>
		</g>
		<g>
			<g>
				<path class="st9" d="M201.73,258.62c1.43-0.72,1.43-1.36,1.2-1.3c-0.24,0.06-1.23,0.29-1.49,0.34c-0.26,0.05-1.04,0.4-1.04,0.4
					S200.3,259.34,201.73,258.62z"/>
			</g>
		</g>
	</g>
	<g>
		<path class="st6" d="M402.85,126.06c2.74,27.72-17.28,52.39-44.71,55.1c-6.67,0.66-12.92-1.21-10.22-1.48
			c19.23-1.9,29.78-21.89,23.77-46.79c-6.21-25.76-19.92-41.23-38.78-41.91c0,0-18.2,7.56-13.16,2.47
			c7.26-7.33,17.45-11.57,28.46-12.66C375.65,78.07,400.11,98.34,402.85,126.06z"/>
		<g>
			<path class="st13" d="M330.96,91.76c-3.86,1.52-12.13,4.58-12.08,3c4-1.25,8.9-3.27,8.9-3.27
				C328.85,91.52,329.91,91.62,330.96,91.76z"/>
			<path class="st9" d="M402.61,126.35c2.74,27.72-17.96,52.18-45.39,54.89c-0.76,0.07-1.51,0.11-2.24,0.13
				c25.93-4.1,45.14-27.78,42.5-54.51c-2.65-26.76-25.54-46.58-51.81-45.48c0.77-0.1,1.54-0.23,2.32-0.31
				C375.41,78.37,399.87,98.64,402.61,126.35z"/>
		</g>
		<path class="st9" d="M348.74,180.59c-1.49-0.38-1.99-0.8-0.82-0.91c19.23-1.9,29.78-21.89,23.77-46.79
			c-6.21-25.76-19.92-41.23-38.78-41.91c0,0-18.2,7.56-13.16,2.47c3.74-3.78,8.27-6.71,13.27-8.84c-2.9,1.79-5.59,3.89-7.94,6.38
			c-5.03,5.3,13.15-2.52,13.15-2.52c18.88,0.79,32.66,17.02,38.99,43.97C383.33,158.48,367.97,178.69,348.74,180.59z"/>
		<path class="st14" d="M319.01,95.06c1.4,1.3,14.37-3.66,14.37-3.66c6.31-3.07,10.83-10.58,30.2-9.73c0,0-0.96-0.18-2.69-0.33
			c0.47,0.01,0.95,0.04,1.44,0.06c-4.23-0.85-8.85-1.14-14.12-0.62c-11.01,1.09-21.2,5.33-28.46,12.66
			C318.87,94.33,318.7,94.83,319.01,95.06z"/>
		<g>
			<path class="st14" d="M202.82,250.83c-0.03-0.07,0-0.15,0.06-0.18l145.08-70.79c0.07-0.04,0.15-0.01,0.18,0.06
				c0.03,0.07,0,0.15-0.06,0.18L203,250.89c-0.01,0.01-0.03,0.01-0.04,0.01C202.9,250.91,202.85,250.89,202.82,250.83z"/>
		</g>
		<g>
			<path class="st14" d="M201.71,249.66C201.65,249.61,201.67,249.72,201.71,249.66L319.66,94.78c0.05-0.06,0.13-0.07,0.19-0.02
				c0.06,0.05,0.07,0.13,0.02,0.19L201.77,248.99c-0.02,0.03-0.05,0.05-0.09,0.05C201.64,249.05,201.74,249.68,201.71,249.66z"/>
		</g>
	</g>
	<g>
		<path class="st0" d="M159.78,264.81c-0.4-0.2-0.57-0.69-0.37-1.09c0.2-0.4,0.68-0.57,1.09-0.37c5.28,2.59,10.91-1.82,10.99-1.88
			c0.35-0.28,0.86-0.23,1.14,0.12c0.28,0.35,0.23,0.86-0.12,1.14c-0.07,0.05-1.63,1.3-3.96,2.19c-0.95,0.36-1.89,0.61-2.82,0.75
			C163.61,265.98,161.59,265.69,159.78,264.81z"/>
	</g>
	<g>
		<path class="st0" d="M160.66,272.22c0.2-0.4,0.69-0.57,1.09-0.37c1.65,0.81,3.33,0.94,4.87,0.73c3.39-0.46,6.06-2.56,6.12-2.6
			c0.02-0.01,0.03-0.02,0.05-0.03c0.05-0.02,0.11-0.06,0.16-0.09c2.53-1.44,4.11-3.59,4.14-3.65c0.26-0.37,0.77-0.45,1.13-0.19
			c0.37,0.26,0.45,0.77,0.19,1.13c-0.05,0.07-1.22,1.7-3.21,3.19c-0.53,0.4-1.08,0.75-1.63,1.05c0,0,0,0,0,0
			c-0.49,0.37-1.88,1.32-3.77,2.04c-0.95,0.36-1.9,0.61-2.82,0.75c-2.12,0.31-4.14,0.02-5.95-0.86
			C160.63,273.12,160.46,272.63,160.66,272.22z"/>
	</g>
	<circle class="st4" cx="202.24" cy="249.96" r="1.92"/>
</g>
</svg>
