<?xml version="1.0" encoding="utf-8"?>
<!-- Generator: Adobe Illustrator 23.0.6, SVG Export Plug-In . SVG Version: 6.00 Build 0)  -->
<svg version="1.1" id="Layer_1" xmlns="http://www.w3.org/2000/svg" xmlns:xlink="http://www.w3.org/1999/xlink" x="0px" y="0px"
	 viewBox="0 0 200.7 76.7" style="enable-background:new 0 0 200.7 76.7;" xml:space="preserve">
<style type="text/css">
	.st0{fill:#FFFFFF;}
</style>
<path class="st0" d="M12.8,53c-2-0.4-3.8-1.1-5.3-2.1c-0.6-0.3-1.1-0.8-1.4-1.6c-0.3-0.7-0.5-1.6-0.5-2.5c0-1.2,0.3-2.1,0.9-2.9
	c0.6-0.8,1.4-1.1,2.4-1.1c0.7,0,1.3,0.1,1.8,0.2c0.6,0.2,1.3,0.4,2.1,0.8c1.4,0.5,2.6,0.8,3.7,1.1c1.1,0.3,2.4,0.4,4.1,0.4
	c1.2,0,2.1-0.2,2.8-0.5c0.7-0.3,1-0.8,1-1.4c0-0.5-0.2-0.8-0.5-1.1c-0.3-0.3-0.9-0.5-1.9-0.7c-0.9-0.2-2.5-0.6-4.6-1
	c-3.9-0.7-6.7-1.9-8.4-3.4c-1.7-1.5-2.6-3.6-2.6-6.4c0-2,0.6-3.8,1.9-5.4c1.2-1.6,2.9-2.9,5.1-3.8c2.2-0.9,4.6-1.4,7.3-1.4
	c2,0,3.9,0.2,5.7,0.7c1.8,0.5,3.5,1.2,4.9,2c1.3,0.8,2,2,2,3.8c0,1.2-0.3,2.2-1,3.1c-0.7,0.8-1.5,1.2-2.4,1.2c-1.1,0-2.5-0.4-4-1.1
	c-1-0.5-2-0.8-2.8-1.1s-1.8-0.4-2.8-0.4c-1.1,0-1.9,0.2-2.5,0.5c-0.6,0.3-0.9,0.8-0.9,1.4c0,0.7,0.4,1.2,1.3,1.6
	c0.8,0.4,2.5,0.8,5.1,1.3c4.2,0.7,7.2,1.9,8.9,3.4c1.7,1.5,2.6,3.7,2.6,6.5c0,3.2-1.3,5.7-4,7.6c-2.6,1.9-6.2,2.8-10.6,2.8
	C17.3,53.7,14.8,53.4,12.8,53z"/>
<path class="st0" d="M62.6,49.1c0,1.5-0.6,2.7-1.8,3.4c-1.2,0.7-2.9,1-5,0.9L54,53.3c-3.9-0.3-6.9-1.5-8.9-3.6c-2-2.1-3-4.9-3-8.7
	V29.6h-1.9c-3.5,0-5.2-1.4-5.2-4.3c0-2.8,1.7-4.2,5.2-4.2h1.9v-4.2c0-1.7,0.5-3,1.6-4c1-1,2.5-1.5,4.2-1.5s3.2,0.5,4.2,1.5
	c1,1,1.6,2.3,1.6,4V21h3.6c3.5,0,5.2,1.4,5.2,4.2c0,2.9-1.7,4.3-5.2,4.3h-3.6v12.5c0,0.8,0.2,1.5,0.8,2.1c0.5,0.6,1.1,0.9,1.9,0.9
	l1.9,0.1C61.2,45.4,62.6,46.7,62.6,49.1z"/>
<path class="st0" d="M93,22.3c2.2,1.4,3.8,3.4,5,6c1.2,2.6,1.8,5.5,1.8,8.8c0,3.3-0.6,6.2-1.8,8.7c-1.2,2.5-2.9,4.4-5,5.8
	c-2.1,1.3-4.6,2-7.4,2c-2,0-3.9-0.4-5.6-1.2c-1.7-0.8-3.1-1.9-4-3.3v11.1c0,1.5-0.5,2.7-1.6,3.7c-1,0.9-2.4,1.4-4.1,1.4
	c-1.8,0-3.2-0.5-4.3-1.5c-1.1-1-1.6-2.2-1.6-3.8V25.7c0-1.6,0.5-2.9,1.5-3.9c1-1,2.4-1.5,4.1-1.5c1.7,0,3,0.4,4,1.3
	c1,0.9,1.6,2,1.7,3.5c0.9-1.5,2.3-2.7,4-3.6c1.8-0.9,3.7-1.3,5.8-1.3C88.4,20.2,90.9,20.9,93,22.3z M86.8,42.9
	c1.1-1.3,1.6-3.3,1.6-5.8c0-2.7-0.5-4.7-1.6-6.1c-1.1-1.4-2.6-2.1-4.6-2.1c-2,0-3.5,0.7-4.6,2.1c-1.1,1.4-1.6,3.4-1.6,6
	c0,2.6,0.5,4.5,1.6,5.9c1.1,1.4,2.7,2.1,4.7,2.1C84.2,45,85.7,44.3,86.8,42.9z"/>
<path class="st0" d="M125.9,21.4c0.9,0.8,1.3,2,1.3,3.6c0,1.7-0.4,3-1.2,3.8c-0.8,0.8-2.3,1.3-4.3,1.5l-2,0.2
	c-2.2,0.3-3.7,0.9-4.7,2.1c-0.9,1.1-1.4,2.6-1.4,4.5v11.2c0,1.8-0.6,3.1-1.7,4c-1.1,0.9-2.5,1.3-4.1,1.3s-3-0.4-4.1-1.3
	c-1.1-0.9-1.7-2.2-1.7-4V25.6c0-1.7,0.6-2.9,1.7-3.9c1.1-0.9,2.4-1.4,4-1.4c1.6,0,2.9,0.4,3.9,1.3c1,0.9,1.5,2.1,1.5,3.7v1.2
	c0.7-1.9,1.8-3.4,3.4-4.4c1.6-1,3.3-1.6,5-1.7l0.9-0.1C123.9,20.2,125,20.6,125.9,21.4z"/>
<path class="st0" d="M156.6,44c0.6,0.8,0.9,1.8,0.9,3.1c0,1.7-0.8,3.1-2.5,4c-1.5,0.7-3.2,1.4-5.3,1.9c-2,0.5-3.9,0.8-5.6,0.8
	c-3.6,0-6.7-0.7-9.3-2c-2.7-1.3-4.7-3.3-6.1-5.8c-1.4-2.5-2.2-5.5-2.2-8.9c0-3.2,0.7-6.1,2.1-8.7c1.4-2.5,3.3-4.5,5.7-5.9
	c2.5-1.4,5.2-2.1,8.3-2.1c3,0,5.6,0.7,7.9,2c2.3,1.3,4,3.2,5.3,5.5c1.2,2.4,1.9,5.2,1.9,8.4c0,1-0.2,1.8-0.7,2.3
	c-0.5,0.5-1.1,0.8-2,0.8h-17.2c0.3,2.1,1,3.6,2,4.5c1,0.9,2.6,1.4,4.6,1.4c1.1,0,2.1-0.1,3-0.4c0.9-0.2,1.9-0.6,3.1-1
	c0.7-0.3,1.3-0.5,1.9-0.7c0.6-0.2,1.2-0.3,1.7-0.3C155.2,42.8,156,43.2,156.6,44z M139.3,29.5c-0.9,1-1.5,2.4-1.6,4.3H148
	c-0.3-3.8-1.9-5.7-5-5.7C141.5,28.1,140.3,28.5,139.3,29.5z"/>
<path class="st0" d="M188.6,22.3c2.2,1.4,3.8,3.4,5,6c1.2,2.6,1.8,5.5,1.8,8.8c0,3.3-0.6,6.2-1.8,8.7c-1.2,2.5-2.9,4.4-5,5.8
	c-2.1,1.3-4.6,2-7.4,2c-2,0-3.9-0.4-5.6-1.2c-1.7-0.8-3.1-1.9-4-3.3v11.1c0,1.5-0.5,2.7-1.6,3.7c-1,0.9-2.4,1.4-4.1,1.4
	c-1.8,0-3.2-0.5-4.3-1.5c-1.1-1-1.6-2.2-1.6-3.8V25.7c0-1.6,0.5-2.9,1.5-3.9c1-1,2.4-1.5,4.1-1.5c1.7,0,3,0.4,4,1.3
	c1,0.9,1.6,2,1.7,3.5c0.9-1.5,2.3-2.7,4-3.6c1.8-0.9,3.7-1.3,5.8-1.3C184,20.2,186.5,20.9,188.6,22.3z M182.3,42.9
	c1.1-1.3,1.6-3.3,1.6-5.8c0-2.7-0.5-4.7-1.6-6.1c-1.1-1.4-2.6-2.1-4.6-2.1c-2,0-3.5,0.7-4.6,2.1c-1.1,1.4-1.6,3.4-1.6,6
	c0,2.6,0.5,4.5,1.6,5.9c1.1,1.4,2.7,2.1,4.7,2.1C179.7,45,181.3,44.3,182.3,42.9z"/>
</svg>
