<?xml version="1.0" encoding="utf-8"?>
<!-- Generator: Adobe Illustrator 23.0.6, SVG Export Plug-In . SVG Version: 6.00 Build 0)  -->
<svg version="1.1" id="Layer_1" xmlns="http://www.w3.org/2000/svg" xmlns:xlink="http://www.w3.org/1999/xlink" x="0px" y="0px"
	 viewBox="0 0 200.74 76.72" style="enable-background:new 0 0 200.74 76.72;" xml:space="preserve">
<style type="text/css">
	.st0{fill:#E8476F;}
	.st1{fill:#E8476F;stroke:#27B092;stroke-miterlimit:10;}
	.st2{fill:#FFFFFF;}
</style>
<path class="st0" d="M7.55,48.4c-1.56,1.48-1.6,3.97-0.39,5.75l6.98,10.29l1.76,2.6c0.02,0.03,0.05,0.04,0.08,0.04
	c0.02,0,0.04,0,0.05-0.01l2.77-1.69l41.89-25.6c2.02-1.24,2.65-3.88,1.41-5.9c-0.81-1.32-2.22-2.05-3.66-2.05c0,0,0,0,0,0
	c-0.76,0-1.54,0.2-2.23,0.63L18.53,55.47c-0.02,0.01-0.03,0.01-0.05,0.01c-0.03,0-0.06-0.02-0.08-0.04l-4.32-6.37
	c-0.83-1.22-2.18-1.88-3.55-1.88C9.47,47.19,8.41,47.58,7.55,48.4z"/>
<path class="st1" d="M16,67.08"/>
<path class="st2" d="M75.53,20.7c5.73,0,10.8,1.54,14.25,4.77c3.16,2.87,5.07,7.05,5.07,12.41c0,5.44-1.62,9.4-4.11,12.12
	c-3.45,3.67-8.37,5.22-12.71,5.22c-3.16,0-5.36-0.37-7.71-1.47v15.35c0,1.47-1.25,2.57-2.72,2.57s-2.72-1.1-2.72-2.57V24.89
	c0-2.28,1.18-3.23,3.23-3.6C70.24,20.92,72.81,20.7,75.53,20.7z M70.31,49.28c2.2,1.1,4.04,1.54,7.2,1.54
	c2.86,0,6.17-0.88,8.67-3.38c2.06-2.06,3.31-5.22,3.31-9.55c0-3.97-1.32-7.05-3.53-9.25c-2.35-2.35-5.88-3.6-9.92-3.6
	c-1.91,0-4.04,0.15-5.73,0.44V49.28z"/>
<path class="st2" d="M121.66,22.24c1.4,0.88,2.13,1.76,2.13,3.01c0,1.47-1.03,2.5-2.42,2.5c-1.98,0-3.08-2.13-6.68-2.13
	c-2.42,0-4.48,0.95-5.95,2.94c-1.84,2.5-2.5,6.46-2.5,9.7v14.4c0,1.4-1.25,2.57-2.72,2.57c-1.47,0-2.72-1.18-2.72-2.57V23.27
	c0-1.47,1.25-2.57,2.72-2.57c1.47,0,2.72,1.1,2.72,2.57v2.79c1.69-3.53,4.92-5.36,9.33-5.36C117.98,20.7,120.26,21.36,121.66,22.24z
	"/>
<path class="st2" d="M156.54,49.94c0,1.1-0.81,1.84-2.72,2.86c-2.65,1.4-6.39,2.42-10.51,2.42c-5.51,0-10.06-1.98-13.15-5.44
	c-2.79-3.01-4.33-7.27-4.33-12.27c0-4.77,1.62-8.96,4.41-11.97c2.79-3.01,6.83-4.85,12.12-4.85c5.07,0,8.96,1.84,11.53,4.63
	c2.86,3.01,4.04,6.91,4.04,10.8c0,1.69-0.96,3.3-2.87,3.3h-23.65c0.29,2.94,1.17,5.36,2.86,7.35c2.13,2.5,5.36,4.04,9.25,4.04
	c3.08,0,5.8-0.66,7.93-1.76c1.4-0.73,2.13-1.32,3.01-1.32C155.66,47.73,156.54,48.76,156.54,49.94z M152.72,35.54
	c-0.14-3.01-1.1-5.51-2.72-7.27c-1.69-1.84-4.34-3.23-7.64-3.23c-3.67,0-6.46,1.4-8.3,3.53c-1.54,1.76-2.42,4.33-2.64,6.98H152.72z"
	/>
<path class="st2" d="M174.68,20.7c5.73,0,10.8,1.54,14.25,4.77c3.16,2.87,5.07,7.05,5.07,12.41c0,5.44-1.62,9.4-4.11,12.12
	c-3.45,3.67-8.37,5.22-12.71,5.22c-3.16,0-5.36-0.37-7.71-1.47v15.35c0,1.47-1.25,2.57-2.72,2.57c-1.47,0-2.72-1.1-2.72-2.57V24.89
	c0-2.28,1.18-3.23,3.23-3.6C169.39,20.92,171.96,20.7,174.68,20.7z M169.46,49.28c2.21,1.1,4.04,1.54,7.2,1.54
	c2.86,0,6.17-0.88,8.67-3.38c2.06-2.06,3.31-5.22,3.31-9.55c0-3.97-1.32-7.05-3.53-9.25c-2.35-2.35-5.88-3.6-9.92-3.6
	c-1.91,0-4.04,0.15-5.73,0.44V49.28z"/>
<g>
	<path class="st2" d="M37.39,19.71h2.79v16.68c0,0.81,0.07,1.6,0.17,2.36l7.4-4.52V19.71h8.38c1.54,0,2.86-1.32,2.86-2.94
		c0-1.69-1.32-3.01-2.86-3.01h-8.38V8.54c0-2.06-1.76-3.67-3.82-3.67c-2.06,0-3.75,1.62-3.75,3.67v5.21h-2.79
		c-1.62,0-2.87,1.32-2.87,3.01C34.52,18.39,35.77,19.71,37.39,19.71z"/>
</g>
<path class="st2" d="M18,42.04c-5.14,0-6.32-2.64-9.04-2.64c-1.62,0-2.94,1.32-2.94,2.94c0,1.12,0.48,2.03,1.27,2.76
	c1-0.51,2.09-0.8,3.23-0.8c2.39,0,4.61,1.18,5.96,3.15l0.29,0.42c0.61,0.03,1.2,0.05,1.75,0.05c8.01,0,13.07-4.19,13.07-10.28
	c0-3.82-1.69-6.39-6.02-8.52c-2.28-1.1-5.14-1.91-7.42-2.87c-1.98-0.88-3.45-1.91-3.45-3.82c0-2.2,2.06-3.16,5.21-3.16
	c3.45,0,5.58,1.47,7.93,1.47c1.62,0,2.94-1.32,2.94-3.01c0-3.45-5.44-4.63-11.31-4.63c-8.15,0-12.71,3.6-12.71,9.48
	c0,4.19,1.91,6.9,5.51,8.59c2.5,1.18,5.51,1.91,7.56,2.87c2.21,1.03,3.82,2.06,3.82,4.26C23.66,40.86,21.38,42.04,18,42.04z"/>
</svg>
